<svg width="82" height="71" viewBox="0 0 82 71" fill="none" xmlns="http://www.w3.org/2000/svg">
<path d="M50.4512 9.46916L54.2207 9.75674C57.2532 9.98809 59.7734 12.1842 60.4175 15.1565C61.0083 17.8829 62.7247 20.2324 65.1425 21.6241L66.3763 22.3344C68.7682 23.7112 69.7591 26.6546 68.6868 29.1976C67.6174 31.7337 67.858 34.6413 69.3064 36.972C70.8867 39.515 70.1621 42.899 67.6791 44.5719C65.4033 46.1052 63.9933 48.6594 63.9305 51.411C63.8675 54.1701 61.7583 56.4498 59.0123 56.7265L56.4242 56.9873C54.3945 57.1919 52.5461 58.2453 51.3356 59.8873C49.6932 62.1152 46.3871 62.1862 44.6505 60.0308L44.2286 59.5071C43.5498 58.6646 43.1797 57.6152 43.1797 56.5333L43.1797 9.38744C43.1797 7.36267 45.6531 6.37735 47.0454 7.84751C47.9399 8.79215 49.154 9.37019 50.4512 9.46916Z" stroke="#212529" stroke-width="3"/>
<path d="M50.6375 17.6543C52.0286 20.6358 55.1202 22.1366 57.5427 21.0063C59.9652 19.876 61.7087 16.3858 60.3176 13.4042" stroke="#212529" stroke-width="3"/>
<path d="M64.1922 50.1464C62.8861 47.1266 60.6079 45.9398 57.3848 46.6001" stroke="#212529" stroke-width="3"/>
<path d="M60.7602 23.0844C58.5115 25.5574 58.8707 28.955 60.7602 30.673C62.6497 32.3911 66.4674 32.5317 68.716 30.0586" stroke="#212529" stroke-width="3"/>
<path d="M42.6116 45.7637C45.5123 47.4246 48.7519 46.3394 50.0208 44.1232C51.2897 41.9069 50.6016 38.1491 47.701 36.4883" stroke="#212529" stroke-width="3"/>
<path d="M59.6072 46.9641C61.4304 44.1627 60.5314 40.8665 58.3909 39.4736C56.2504 38.0806 52.4595 38.5537 50.6364 41.3552" stroke="#212529" stroke-width="3"/>
<path d="M29.0265 26.2396C27.7048 29.3097 29.1498 32.4056 31.4955 33.4155C33.8411 34.4253 37.4969 33.3161 38.8186 30.246" stroke="#212529" stroke-width="3"/>
<path d="M43.1749 23.2606C41.8532 26.3307 43.2982 29.4266 45.6439 30.4365C47.9896 31.4463 51.6453 30.3371 52.967 27.267" stroke="#212529" stroke-width="3"/>
<path d="M13.5702 45.0194C16.4708 46.6802 19.7105 45.595 20.9794 43.3788C21.7802 41.9802 21.8016 39.9677 20.9794 38.2557" stroke="#212529" stroke-width="3"/>
<path d="M30.9131 9.46916L27.1436 9.75674C24.1111 9.98809 21.5908 12.1842 20.9468 15.1565C20.356 17.8829 18.6396 20.2324 16.2218 21.6241L14.9879 22.3344C12.5961 23.7112 11.6052 26.6546 12.6775 29.1976C13.7468 31.7337 13.5063 34.6413 12.0579 36.972C10.4776 39.515 11.2022 42.899 13.6852 44.5719C15.9609 46.1052 17.371 48.6594 17.4338 51.411C17.4968 54.1701 19.606 56.4498 22.3519 56.7265L24.9401 56.9873C26.9697 57.1919 28.8182 58.2453 30.0287 59.8873C31.6711 62.1152 34.9772 62.1862 36.7137 60.0308L37.1357 59.5071C37.8144 58.6646 38.1846 57.6152 38.1846 56.5333L38.1846 9.38744C38.1846 7.36267 35.7111 6.37735 34.3189 7.84751C33.4243 8.79215 32.2103 9.37019 30.9131 9.46916Z" stroke="#212529" stroke-width="3"/>
<path d="M30.7267 17.6543C29.3356 20.6358 26.2441 22.1366 23.8215 21.0063C21.399 19.876 19.6555 16.3858 21.0466 13.4042" stroke="#212529" stroke-width="3"/>
<path d="M31.2756 50.892C32.5816 47.8722 34.8598 46.6854 38.083 47.3457" stroke="#212529" stroke-width="3"/>
<path d="M12.6482 30.0586C14.8968 32.5317 18.7146 32.3911 20.6041 30.673C21.3711 29.9756 21.886 29.0014 22.0765 27.9246" stroke="#212529" stroke-width="3"/>
</svg>
