<svg width="45" height="45" viewBox="0 0 45 45" fill="none" xmlns="http://www.w3.org/2000/svg">
<g clip-path="url(#clip0_130_86)">
<path d="M14.7385 22.1514C14.7385 18.0903 18.0298 14.7973 22.0909 14.7973C26.152 14.7973 29.445 18.0903 29.445 22.1514C29.445 26.2125 26.152 29.5056 22.0909 29.5056C18.0298 29.5056 14.7385 26.2125 14.7385 22.1514ZM10.763 22.1514C10.763 28.4079 15.8344 33.4793 22.0909 33.4793C28.3473 33.4793 33.4188 28.4079 33.4188 22.1514C33.4188 15.895 28.3473 10.8235 22.0909 10.8235C15.8344 10.8235 10.763 15.895 10.763 22.1514ZM31.2198 10.3745C31.2198 11.8357 32.4048 13.0225 33.8678 13.0225C35.329 13.0225 36.5158 11.8357 36.5158 10.3745C36.5158 8.91328 35.3308 7.72828 33.8678 7.72828C32.4048 7.72828 31.2198 8.91328 31.2198 10.3745ZM13.1775 40.1082C11.0267 40.0102 9.85776 39.652 9.08082 39.3491C8.05085 38.9481 7.31669 38.4706 6.54332 37.699C5.77173 36.9274 5.29239 36.1932 4.89323 35.1633C4.5903 34.3863 4.23212 33.2174 4.13412 31.0665C4.0272 28.7411 4.00582 28.0426 4.00582 22.1514C4.00582 16.2603 4.02898 15.5635 4.13412 13.2363C4.23212 11.0855 4.59208 9.9183 4.89323 9.13959C5.29417 8.10962 5.77173 7.37545 6.54332 6.60208C7.31491 5.8305 8.04907 5.35115 9.08082 4.95199C9.85776 4.64906 11.0267 4.29089 13.1775 4.19288C15.503 4.08596 16.2015 4.06458 22.0909 4.06458C27.982 4.06458 28.6788 4.08775 31.006 4.19288C33.1568 4.29089 34.324 4.65084 35.1027 4.95199C36.1327 5.35115 36.8669 5.8305 37.6402 6.60208C38.4118 7.37367 38.8894 8.10962 39.2903 9.13959C39.5932 9.91652 39.9514 11.0855 40.0494 13.2363C40.1563 15.5635 40.1777 16.2603 40.1777 22.1514C40.1777 28.0408 40.1563 28.7393 40.0494 31.0665C39.9514 33.2174 39.5915 34.3863 39.2903 35.1633C38.8894 36.1932 38.4118 36.9274 37.6402 37.699C36.8686 38.4706 36.1327 38.9481 35.1027 39.3491C34.3258 39.652 33.1568 40.0102 31.006 40.1082C28.6806 40.2151 27.982 40.2365 22.0909 40.2365C16.2015 40.2365 15.503 40.2151 13.1775 40.1082ZM12.9958 0.224467C10.6472 0.331384 9.0434 0.703813 7.64101 1.24909C6.19049 1.81219 4.96094 2.56774 3.73318 3.79372C2.50719 5.01971 1.75164 6.24926 1.18854 7.70155C0.643266 9.10395 0.270837 10.7077 0.16392 13.0563C0.0552208 15.4085 0.0302734 16.1605 0.0302734 22.1514C0.0302734 28.1424 0.0552208 28.8943 0.16392 31.2465C0.270837 33.5951 0.643266 35.1989 1.18854 36.6013C1.75164 38.0518 2.50541 39.2831 3.73318 40.5091C4.95916 41.7351 6.18871 42.4889 7.64101 43.0538C9.04519 43.599 10.6472 43.9715 12.9958 44.0784C15.3497 44.1853 16.0999 44.212 22.0909 44.212C28.0836 44.212 28.8338 44.1871 31.186 44.0784C33.5346 43.9715 35.1384 43.599 36.5408 43.0538C37.9913 42.4889 39.2208 41.7351 40.4486 40.5091C41.6746 39.2831 42.4283 38.0518 42.9932 36.6013C43.5385 35.1989 43.9127 33.5951 44.0178 31.2465C44.1248 28.8926 44.1497 28.1424 44.1497 22.1514C44.1497 16.1605 44.1248 15.4085 44.0178 13.0563C43.9109 10.7077 43.5385 9.10395 42.9932 7.70155C42.4283 6.25104 41.6746 5.02149 40.4486 3.79372C39.2226 2.56774 37.9913 1.81219 36.5425 1.24909C35.1384 0.703813 33.5346 0.329602 31.1878 0.224467C28.8356 0.11755 28.0836 0.0908203 22.0927 0.0908203C16.0999 0.0908203 15.3497 0.115768 12.9958 0.224467Z" fill="#212529"/>
</g>
<defs>
<clipPath id="clip0_130_86">
<rect width="44.1212" height="44.1212" fill="white" transform="translate(0.0302734 0.0908203)"/>
</clipPath>
</defs>
</svg>
