<svg width="148" height="72" viewBox="0 0 148 72" fill="none" xmlns="http://www.w3.org/2000/svg">
<path d="M64.7959 42.2329C64.7959 40.2999 66.3629 38.7329 68.2959 38.7329H135.536C137.469 38.7329 139.036 40.2999 139.036 42.2329V59.0022C139.036 60.2895 139.418 61.5479 140.134 62.6177L144.793 69.5774L132.148 67.3221C131.771 67.2549 131.389 67.2211 131.006 67.2211H68.2959C66.3629 67.2211 64.7959 65.6541 64.7959 63.7211V42.2329Z" stroke="#212529" stroke-width="3"/>
<path d="M85.0664 5C85.0664 3.067 83.4994 1.5 81.5664 1.5H12.6288C10.6958 1.5 9.12879 3.06701 9.12879 5V21.0771C9.12879 22.4152 8.71581 23.7207 7.9462 24.8154L3.29719 31.4282L16.2489 29.2289C16.6084 29.1679 16.9724 29.1372 17.3371 29.1372H81.5664C83.4994 29.1372 85.0664 27.5702 85.0664 25.6372V5Z" stroke="#212529" stroke-width="3"/>
<line x1="14.8936" y1="10.6006" x2="42.8181" y2="10.6006" stroke="#212529" stroke-width="3"/>
<line x1="22.3398" y1="10.6006" x2="50.2644" y2="10.6006" stroke="#212529" stroke-width="3"/>
<line x1="73.5342" y1="47.8335" x2="127.522" y2="47.8335" stroke="#212529" stroke-width="3"/>
<line x1="73.3564" y1="57.1416" x2="117.46" y2="57.1416" stroke="#212529" stroke-width="3"/>
<line x1="15.8242" y1="19.9087" x2="73.5349" y2="19.9087" stroke="#212529" stroke-width="3"/>
</svg>
