<svg width="48" height="48" viewBox="0 0 48 48" fill="none" xmlns="http://www.w3.org/2000/svg">
<path d="M44.4133 4.89726C43.8496 4.42831 43.1693 4.12097 42.4448 4.00794C41.7203 3.89492 40.9787 3.98043 40.299 4.25539L4.81923 18.5799C4.06047 18.8921 3.41459 19.4277 2.96732 20.1155C2.52006 20.8033 2.29255 21.6109 2.31499 22.4311C2.33744 23.2512 2.60878 24.0452 3.093 24.7075C3.57722 25.3699 4.25142 25.8693 5.02612 26.1395L12.2029 28.6355L16.2031 41.8638C16.2574 42.0405 16.3363 42.2087 16.4374 42.3635C16.4528 42.3872 16.4744 42.4049 16.4907 42.428C16.6075 42.591 16.7487 42.7351 16.9093 42.8552C16.955 42.89 16.9987 42.9226 17.0475 42.9535C17.2355 43.0782 17.4436 43.1694 17.6627 43.223L17.6862 43.225L17.6995 43.2307C17.8312 43.2575 17.9652 43.2711 18.0997 43.2713C18.1126 43.2713 18.1241 43.2651 18.1369 43.2649C18.3397 43.2613 18.5408 43.2264 18.733 43.1613C18.7777 43.1461 18.816 43.1206 18.8594 43.1022C19.0027 43.0428 19.1384 42.9667 19.2638 42.8754C19.3643 42.7908 19.4647 42.7062 19.5652 42.6216L24.9149 36.7151L32.894 42.8962C33.5965 43.4431 34.4611 43.7404 35.3514 43.7411C36.2842 43.7399 37.1883 43.418 37.912 42.8295C38.6358 42.2409 39.1352 41.4214 39.3265 40.5084L45.786 8.79887C45.9323 8.08518 45.8819 7.34513 45.6401 6.65789C45.3983 5.97065 44.9743 5.36207 44.4133 4.89726ZM18.8847 29.2658C18.6102 29.5392 18.4225 29.8876 18.3453 30.2673L17.7325 33.2449L16.1802 28.1112L24.2286 23.92L18.8847 29.2658ZM35.3205 39.766L25.8913 32.4616C25.4968 32.1568 25.002 32.0118 24.5053 32.0555C24.0087 32.0992 23.5468 32.3284 23.2116 32.6975L21.4983 34.5886L22.1038 31.6457L36.1267 17.6228C36.4614 17.2886 36.6653 16.8455 36.7016 16.3738C36.7378 15.9022 36.6039 15.4331 36.3241 15.0517C36.0443 14.6703 35.6372 14.4016 35.1765 14.2945C34.7157 14.1873 34.2318 14.2487 33.8124 14.4675L13.6872 24.9459L6.31376 22.2476L41.9075 8.00806L35.3205 39.766Z" fill="#212529"/>
</svg>
