<svg width="57" height="56" viewBox="0 0 57 56" fill="none" xmlns="http://www.w3.org/2000/svg">
<path d="M41.8353 15.2069L41.2518 16.454C41.2518 16.454 38.4848 22.3306 35.1158 26.0328C34.0328 27.2306 33.4829 27.5913 32.8848 27.5913C32.4038 27.5913 32.1814 27.1903 32.1814 26.1112V14.9336H21.7061V15.7898C21.7061 17.037 23.6202 17.3192 23.6202 20.6977V27.668C23.6202 29.0719 23.5434 29.6151 22.8804 29.6151C21.1192 29.6151 16.9377 23.58 14.5896 16.7273L14.0061 14.9336H7.16287C6.41919 14.9336 5.87207 15.4398 5.87207 16.1807C5.87207 17.5443 7.47591 23.851 13.7692 32.3042C17.991 37.9899 23.5434 41.0666 28.5459 41.0666C31.5974 41.0666 32.3377 40.5603 32.3377 39.2768V34.9144C32.3377 33.823 32.7683 33.3559 33.3955 33.3559C34.0989 33.3559 35.3387 33.5799 38.2406 36.4331C38.244 36.4331 42.8926 41.0666 42.8926 41.0666H49.5392C50.1261 41.0666 50.6726 40.7955 50.6726 39.8217C50.6726 38.5342 48.9921 36.2377 46.411 33.5122C45.3571 32.1105 43.6362 30.5901 43.0891 29.8878C42.309 29.0714 42.542 28.6049 43.0891 27.7481C43.0891 27.7481 48.9921 19.4506 49.579 16.7267C49.7761 15.7534 49.3454 15.2063 48.3285 15.2063L41.8353 15.2069Z" fill="#212529"/>
</svg>
