<svg width="51" height="52" viewBox="0 0 51 52" fill="none" xmlns="http://www.w3.org/2000/svg">
<path d="M35.2119 30.3938C34.7876 30.1817 32.0301 28.909 31.6058 28.6968C31.1816 28.4847 30.7573 28.4847 30.3331 28.909C29.9089 29.3332 29.0604 30.6059 28.6361 31.0302C28.424 31.4544 27.9998 31.4544 27.5755 31.2423C26.0907 30.6059 24.6058 29.7574 23.3331 28.6968C22.2725 27.6362 21.2119 26.3635 20.3634 25.0908C20.1513 24.6665 20.3634 24.2423 20.5755 24.0302C20.7876 23.818 20.9998 23.3938 21.424 23.1817C21.6361 22.9696 21.8482 22.5453 21.8482 22.3332C22.0604 22.1211 22.0604 21.6968 21.8482 21.4847C21.6361 21.2726 20.5755 18.7271 20.1513 17.6665C19.9392 16.1817 19.5149 16.1817 19.0907 16.1817C18.8786 16.1817 18.4543 16.1817 18.0301 16.1817C17.6058 16.1817 16.9695 16.6059 16.7573 16.818C15.4846 18.0908 14.8482 19.5756 14.8482 21.2726C15.0604 23.1817 15.6967 25.0908 16.9695 26.7877C19.3028 30.1817 22.2725 32.9393 25.8786 34.6362C26.9392 35.0605 27.7876 35.4847 28.8482 35.6968C29.9089 36.1211 30.9695 36.1211 32.2422 35.909C33.727 35.6968 34.9998 34.6362 35.8482 33.3635C36.2725 32.515 36.2725 31.6665 36.0604 30.818C36.0604 30.818 35.6361 30.6059 35.2119 30.3938ZM40.5149 11.0908C32.2422 2.81805 18.8786 2.81805 10.6058 11.0908C3.81794 17.8787 2.54522 28.2726 7.21188 36.5453L4.24219 47.3635L15.4846 44.3938C18.6664 46.0908 22.0604 46.9393 25.4543 46.9393C37.121 46.9393 46.4543 37.6059 46.4543 25.9393C46.6664 20.4241 44.3331 15.1211 40.5149 11.0908ZM34.7876 40.7877C32.0301 42.4847 28.8482 43.5453 25.4543 43.5453C22.2725 43.5453 19.3028 42.6968 16.5452 41.212L15.9089 40.7877L9.3331 42.4847L11.0301 36.1211L10.6058 35.4847C5.51491 26.9999 8.06037 16.3938 16.3331 11.0908C24.6058 5.78775 35.2119 8.54532 40.3028 16.6059C45.3937 24.8787 43.0604 35.6968 34.7876 40.7877Z" fill="#212529"/>
</svg>
